<svg width="32" height="32" viewBox="0 0 32 32" fill="none" xmlns="http://www.w3.org/2000/svg">
<g clip-path="url(#clip0)">
<path d="M18.5704 15.5515H14.5441L15.3196 21.6022C15.3198 21.6038 15.3198 21.6053 15.32 21.6069H18.5704V15.5515H18.5704Z" fill="white"/>
<path d="M24.4657 15.5515H20.446V21.6069H23.6961C23.6964 21.6046 23.6964 21.6025 23.6966 21.6002L24.4657 15.5515Z" fill="white"/>
<path d="M27.3668 7.60559L26.595 13.6757H31.0829L31.9465 9.93608C32.236 8.83633 31.3092 7.59865 30.1085 7.61553L27.3669 7.60446C27.3668 7.60484 27.3668 7.60521 27.3668 7.60559V7.60559Z" fill="white"/>
<path d="M18.5703 7.56901L13.5182 7.54869L14.3036 13.6758H18.5703V7.56901Z" fill="white"/>
<path d="M26.3565 15.5515L25.5867 21.6069H27.3893C28.4856 21.6069 29.4236 20.8608 29.6702 19.7926L30.6496 15.5515H26.3565Z" fill="white"/>
<path d="M13.4291 21.6069L12.6529 15.5515H8.01701L9.14252 19.7273C8.39204 19.7546 7.69301 20.0598 7.16292 20.5977C6.60595 21.1629 6.30683 21.9111 6.32065 22.7044C6.34828 24.2911 7.66187 25.582 9.24888 25.582H10.6164C10.4132 26.0087 10.299 26.4857 10.299 26.9889C10.299 28.799 11.7716 30.2716 13.5817 30.2716C15.3918 30.2716 16.8644 28.799 16.8644 26.9889C16.8644 26.4856 16.7502 26.0087 16.547 25.582H22.4691C22.266 26.0086 22.1519 26.4853 22.1519 26.9884C22.1519 28.7985 23.6245 30.2711 25.4346 30.2711C27.2447 30.2711 28.7173 28.7984 28.7173 26.9884C28.7173 26.4657 28.5939 25.9716 28.3757 25.5325C28.7468 25.4075 29.0144 25.0574 29.0144 24.6442C29.0144 24.1263 28.5945 23.7063 28.0766 23.7063C23.5376 23.7063 13.7355 23.7063 9.24882 23.7063C7.84901 23.6346 7.87827 21.6649 9.25188 21.6005L13.4291 21.6069Z" fill="white"/>
<path d="M20.4462 7.57658V13.6758H24.7043L25.4771 7.5969L20.4462 7.57658Z" fill="white"/>
<path d="M4.87438 3.89124L5.34363 5.63237H7.28628L6.68516 3.4021C6.41837 2.41665 5.51907 1.72844 4.49817 1.72844H0.937874C0.419917 1.72844 0 2.14836 0 2.66631C0 3.18427 0.419917 3.60419 0.937874 3.60419H4.49817C4.67393 3.60412 4.82874 3.72261 4.87438 3.89124V3.89124Z" fill="white"/>
<path d="M11.6271 7.54782C11.627 7.54682 11.6269 7.54582 11.6269 7.54482H5.85913C6.07634 8.35114 7.27132 12.7841 7.5116 13.6758H12.4126L11.6271 7.54782Z" fill="white"/>
</g>
<defs>
<clipPath id="clip0">
<rect width="32" height="32" fill="white"/>
</clipPath>
</defs>
</svg>
