<svg width="32" height="32" viewBox="0 0 32 32" fill="none" xmlns="http://www.w3.org/2000/svg">
<path d="M31.707 14.7095L19.2707 1.4426C17.4669 -0.480866 14.5331 -0.480866 12.7293 1.4426L0.292972 14.7095C-0.0976572 15.1262 -0.0976572 15.8016 0.292972 16.2183C0.682975 16.635 1.31673 16.635 1.70674 16.2183L2.49987 15.3722V28.9331C2.49987 30.6269 3.78707 32 5.3749 32H10.3749C10.7201 32 11 31.7015 11 31.3333V21.466C11 19.6249 12.3991 18.1324 14.125 18.1324H17.875C19.6009 18.1324 21 19.6249 21 21.466V31.3333C21 31.7015 21.2799 32 21.6251 32H26.6251C28.2129 32 29.5001 30.6269 29.5001 28.9331V15.3722L30.2933 16.2183C30.4883 16.4263 30.7445 16.531 31.0001 16.531C31.2558 16.531 31.512 16.4263 31.707 16.2183C32.0977 15.8016 32.0977 15.1262 31.707 14.7095V14.7095Z" fill="#1DD1A1"/>
</svg>
