<svg width="32" height="32" viewBox="0 0 32 32" fill="none" xmlns="http://www.w3.org/2000/svg">
<path d="M28.6708 26.3882L27.2419 8.38143C27.1533 7.22124 26.1717 6.31281 25.0084 6.31281H22.1856V10.4951C22.1856 11.0131 21.7664 11.4323 21.2484 11.4323C20.7311 11.4323 20.3113 11.0131 20.3113 10.4951V6.31281H11.6893V10.4951C11.6893 11.0131 11.2694 11.4323 10.7521 11.4323C10.2342 11.4323 9.81494 11.0131 9.81494 10.4951V6.31281H6.99219C5.82888 6.31281 4.84732 7.22124 4.75863 8.37893L3.32913 26.3907C3.21857 27.8334 3.719 29.2691 4.70175 30.33C5.68456 31.3908 7.07782 32 8.52419 32H23.4764C24.9228 32 26.3161 31.3908 27.2989 30.3299C28.2816 29.269 28.7821 27.8333 28.6708 26.3882ZM20.2226 17.2183L15.3755 22.0654C15.1924 22.2484 14.9525 22.3402 14.7126 22.3402C14.4727 22.3402 14.2328 22.2484 14.0498 22.0654L11.7781 19.7937C11.4119 19.4276 11.4119 18.8346 11.7781 18.4685C12.1442 18.1024 12.7378 18.1024 13.1033 18.4685L14.7127 20.0773L18.8974 15.8926C19.2629 15.5271 19.8565 15.5271 20.2226 15.8926C20.5887 16.2587 20.5887 16.8522 20.2226 17.2183Z" fill="#1DD1A1"/>
<path d="M16.0003 0C12.5896 0 9.81494 2.77525 9.81494 6.18594V6.31275H11.6893V6.18594C11.6893 3.80862 13.623 1.87431 16.0003 1.87431C18.3776 1.87431 20.3113 3.80862 20.3113 6.18594V6.31275H22.1856V6.18594C22.1856 2.77525 19.4109 0 16.0003 0Z" fill="#1DD1A1"/>
</svg>
