<svg width="108" height="101" viewBox="0 0 108 101" fill="none" xmlns="http://www.w3.org/2000/svg">
<g clip-path="url(#clip0)" filter="url(#filter0_d)">
<path d="M103.704 45.9315L85.9306 9.45879C85.4398 8.45137 84.4173 7.8125 83.297 7.8125H24.7032C23.5827 7.8125 22.5604 8.45156 22.0696 9.45879L4.2961 45.9315C3.88047 46.7846 3.90371 47.7862 4.3584 48.619C4.81309 49.4518 5.64317 50.013 6.58555 50.1243C9.08087 50.4194 11.5203 50.4632 13.961 50.2725V89.258C13.961 90.8759 15.2727 92.1877 16.8906 92.1877C20.7473 92.1877 88.583 92.1877 91.1095 92.1877C92.7275 92.1877 94.0392 90.8759 94.0392 89.258V50.2737C96.4834 50.4645 98.9523 50.4153 101.415 50.1241C102.357 50.0128 103.187 49.4516 103.642 48.6188C104.096 47.786 104.12 46.7845 103.704 45.9315ZM63.7093 13.6719L72.1704 37.6911C63.7558 46.8561 44.1522 46.7553 35.8297 37.6911L44.2909 13.6719H63.7093ZM11.5016 44.5206L26.5344 13.6719H38.0786L29.9071 36.8688C25.7399 42.1489 18.2555 44.4219 11.5016 44.5206ZM39.3516 86.3283H19.8203V77.5392H39.3516V86.3283ZM62.7892 86.3283H45.211V62.8907H62.7892V86.3283ZM88.1798 86.3283H68.6486V77.5392H88.1798V86.3283ZM88.1798 71.6798H68.6486V59.961C68.6486 58.3431 67.3368 57.0313 65.7189 57.0313H42.2813C40.6633 57.0313 39.3516 58.3431 39.3516 59.961V71.6798H19.8203V49.3399C24.4637 48.2018 29.0245 46.0327 32.5165 42.6858C43.2585 52.9741 64.7585 52.9579 75.4837 42.6858C78.9453 46.0034 83.4865 48.1895 88.1798 49.3399V71.6798ZM78.0929 36.8684L69.9214 13.6719H81.4656L96.4986 44.5208C89.7689 44.4216 82.2759 42.1686 78.0929 36.8684Z" fill="#020202"/>
</g>
<defs>
<filter id="filter0_d" x="0" y="0" width="108" height="108" filterUnits="userSpaceOnUse" color-interpolation-filters="sRGB">
<feFlood flood-opacity="0" result="BackgroundImageFix"/>
<feColorMatrix in="SourceAlpha" type="matrix" values="0 0 0 0 0 0 0 0 0 0 0 0 0 0 0 0 0 0 127 0"/>
<feOffset dy="4"/>
<feGaussianBlur stdDeviation="2"/>
<feColorMatrix type="matrix" values="0 0 0 0 0 0 0 0 0 0 0 0 0 0 0 0 0 0 0.25 0"/>
<feBlend mode="normal" in2="BackgroundImageFix" result="effect1_dropShadow"/>
<feBlend mode="normal" in="SourceGraphic" in2="effect1_dropShadow" result="shape"/>
</filter>
<clipPath id="clip0">
<rect width="100" height="100" fill="white" transform="translate(4)"/>
</clipPath>
</defs>
</svg>
