<svg width="225" height="200" viewBox="0 0 225 200" fill="none" xmlns="http://www.w3.org/2000/svg">
<path d="M84.8044 80.3879C93.3416 80.3879 100.262 73.4406 100.262 64.8706C100.262 56.3007 93.3416 49.3534 84.8044 49.3534C76.2672 49.3534 69.3464 56.3007 69.3464 64.8706C69.3464 73.4406 76.2672 80.3879 84.8044 80.3879Z" fill="#1DD1A1"/>
<path d="M211.689 121.983C204.389 115.086 195.157 110.56 185.067 109.267V30.3879C185.067 21.9828 181.632 14.4397 176.264 8.83621C170.682 3.23276 163.168 0 154.795 0H30.2719C21.8989 0 14.3845 3.44828 8.80248 8.83621C3.22042 14.4397 0 21.9828 0 30.3879V129.741V139.009V159.052C0 167.457 3.43511 175 8.80248 180.603C14.3845 186.207 21.8989 189.44 30.2719 189.44H150.716C158.659 195.905 168.535 200 179.485 200C192.152 200 203.531 194.828 211.689 186.638C219.847 178.448 225 167.026 225 154.31C225 141.595 219.847 130.172 211.689 121.983ZM11.3788 30.3879C11.3788 25.2155 13.5258 20.4741 16.9609 17.2414C20.396 13.7931 25.1193 11.6379 30.2719 11.6379H154.795C159.948 11.6379 164.671 13.7931 168.106 17.2414C171.541 20.6897 173.688 25.431 173.688 30.6034V97.8448L141.913 65.9483C139.766 63.7931 136.116 63.5776 133.755 65.9483L85.8779 114.224L53.459 81.4655C51.312 79.3103 47.6622 79.0948 45.3006 81.4655L11.3788 115.948V30.3879V30.3879ZM30.0573 178.448V178.017C24.9046 178.017 20.1813 175.862 16.7462 172.414C13.5258 168.966 11.3788 164.224 11.3788 159.052V139.009V132.328L49.3798 93.9655L81.7987 126.509C83.9456 128.664 87.5954 128.664 89.9571 126.509L137.834 78.2328L169.179 109.914C168.535 110.129 167.891 110.345 167.247 110.56C166.388 110.776 165.53 110.991 164.456 111.422C163.597 111.638 162.739 112.069 161.88 112.284C161.236 112.5 160.806 112.716 160.162 113.147C159.303 113.578 158.659 113.793 158.015 114.224C156.942 114.871 155.868 115.517 154.795 116.164C154.151 116.595 153.721 116.81 153.077 117.241C152.648 117.457 152.433 117.672 152.004 117.888C150.072 119.181 148.354 120.69 146.851 122.414C138.693 130.603 133.54 142.026 133.54 154.741C133.54 157.974 133.969 160.991 134.614 164.224C134.828 165.086 135.043 165.733 135.258 166.595C135.902 168.75 136.546 170.905 137.405 173.06V173.276C138.263 175 139.122 176.94 140.196 178.448H30.0573V178.448ZM203.316 178.448C197.09 184.698 188.717 188.362 179.27 188.362C170.253 188.362 161.88 184.698 155.868 178.879C155.01 178.017 154.151 176.94 153.292 176.078C152.648 175.431 152.004 174.569 151.36 173.922C150.501 172.845 149.857 171.552 149.213 170.259C148.783 169.397 148.354 168.75 147.925 167.888C147.495 166.81 147.066 165.517 146.851 164.224C146.636 163.362 146.207 162.284 145.992 161.422C145.563 159.267 145.348 156.897 145.348 154.526C145.348 145.043 149.213 136.638 155.224 130.388C161.236 124.138 169.823 120.474 179.27 120.474C188.717 120.474 197.09 124.353 203.316 130.388C209.542 136.638 213.192 145.043 213.192 154.526C213.192 163.793 209.327 172.198 203.316 178.448Z" fill="#1DD1A1"/>
<path d="M183.349 131.25C182.92 130.819 182.276 130.388 181.417 129.957C180.773 129.741 180.129 129.526 179.485 129.526C179.27 129.526 179.27 129.526 179.27 129.526C179.055 129.526 179.055 129.526 179.055 129.526C178.411 129.526 177.767 129.741 177.123 129.957C176.479 130.172 175.835 130.603 175.191 131.25L161.88 144.612C159.733 146.767 159.733 150.431 161.88 152.802C164.027 154.957 167.677 154.957 170.038 152.802L173.473 149.353V173.06C173.473 176.293 176.05 178.879 179.27 178.879C182.49 178.879 185.067 176.293 185.067 173.06V149.353L188.502 152.802C190.649 154.957 194.299 154.957 196.66 152.802C198.807 150.647 198.807 146.983 196.66 144.612L183.349 131.25Z" fill="#1DD1A1"/>
</svg>
