<svg width="298" height="299" viewBox="0 0 298 299" fill="none" xmlns="http://www.w3.org/2000/svg">
<path opacity="0.1" d="M114.41 31.2905H86.1313C84.9721 31.2905 84.0325 32.2302 84.0325 33.3893V41.3704C84.0325 42.5295 84.9721 43.4692 86.1313 43.4692H114.41C115.569 43.4692 116.509 42.5295 116.509 41.3704V33.3893C116.509 32.2302 115.569 31.2905 114.41 31.2905Z" fill="#1DD1A1"/>
<path opacity="0.1" d="M211.027 20.3298H182.748C181.589 20.3298 180.65 21.2695 180.65 22.4286V30.4097C180.65 31.5688 181.589 32.5085 182.748 32.5085H211.027C212.186 32.5085 213.126 31.5688 213.126 30.4097V22.4286C213.126 21.2695 212.186 20.3298 211.027 20.3298Z" fill="#1DD1A1"/>
<path opacity="0.1" d="M193.165 144.146H164.886C163.727 144.146 162.788 145.085 162.788 146.245V154.226C162.788 155.385 163.727 156.324 164.886 156.324H193.165C194.324 156.324 195.264 155.385 195.264 154.226V146.245C195.264 145.085 194.324 144.146 193.165 144.146Z" fill="#1DD1A1"/>
<path opacity="0.1" d="M207.779 157.542H179.501C178.342 157.542 177.402 158.482 177.402 159.641V167.622C177.402 168.781 178.342 169.721 179.501 169.721H207.779C208.939 169.721 209.878 168.781 209.878 167.622V159.641C209.878 158.482 208.939 157.542 207.779 157.542Z" fill="#1DD1A1"/>
<path opacity="0.1" d="M294.654 151.453H266.375C265.216 151.453 264.276 152.393 264.276 153.552V161.533C264.276 162.692 265.216 163.632 266.375 163.632H294.654C295.813 163.632 296.752 162.692 296.752 161.533V153.552C296.752 152.393 295.813 151.453 294.654 151.453Z" fill="#1DD1A1"/>
<path opacity="0.1" d="M30.3775 161.196H2.09878C0.939656 161.196 0 162.135 0 163.295V171.276C0 172.435 0.939656 173.374 2.09878 173.374H30.3775C31.5367 173.374 32.4763 172.435 32.4763 171.276V163.295C32.4763 162.135 31.5367 161.196 30.3775 161.196Z" fill="#1DD1A1"/>
<path opacity="0.1" d="M183.016 170.939H154.737C153.578 170.939 152.639 171.878 152.639 173.038V181.019C152.639 182.178 153.578 183.117 154.737 183.117H183.016C184.175 183.117 185.115 182.178 185.115 181.019V173.038C185.115 171.878 184.175 170.939 183.016 170.939Z" fill="#1DD1A1"/>
<path d="M241.912 74.001L227.03 30.7994L221.679 31.6113L216.889 32.2243C217.011 30.6005 217.222 24.771 214.25 21.7141C213.962 20.6668 213.203 19.4773 211.741 18.1377C204.621 11.6099 203.139 24.9618 203.139 24.9618C203.139 24.9618 201.516 27.7791 199.279 31.7168L198.105 31.4936L197.773 34.4002C192.82 43.1566 186.239 55.0064 186.239 56.1187C186.239 57.9009 185.35 60.2716 185.35 60.2716C185.35 60.2716 180.308 68.5775 178.526 72.7344C177.489 75.1868 175.971 77.4064 174.061 79.2622C174.061 79.2622 173.631 79.591 172.924 80.0741C172.969 79.2883 173.105 78.5104 173.33 77.7561C173.98 75.6329 175.49 73.8143 175.892 71.6302C175.986 71.1067 176.021 70.5743 175.997 70.0429C176.091 67.4814 174.844 64.9604 174.325 62.3988C173.72 59.4313 174.045 56.1634 172.461 53.5856C171.244 51.6167 169.084 50.3907 166.839 49.8264C164.777 49.3109 162.747 49.4936 160.668 49.2743C158.76 49.0714 156.938 48.227 155.03 47.9144C154.011 47.6928 152.956 47.6928 151.936 47.9144C148.709 48.8034 147.698 52.8711 145.206 55.1079C144.308 55.9198 143.208 56.48 142.396 57.3691C141.215 58.6641 140.805 60.4706 140.866 62.2405C140.85 62.8338 140.886 63.4273 140.972 64.0145C141.28 66.1377 142.1 68.1471 142.595 70.2297C142.97 71.7709 143.173 73.3489 143.2 74.9347C143.2 75.2919 143.2 75.6492 143.168 76.0024C143.183 76.7174 142.992 77.4217 142.62 78.0321C142.169 78.6532 141.426 78.9536 140.765 79.3515C138.602 77.6349 136.978 75.3322 136.088 72.7182C136.088 72.7182 135.978 72.8562 135.792 73.1241V72.7182C135.792 72.7182 131.732 66.7588 131.115 61.8914L132.528 62.0375L135.775 16.3474L127.482 15.1296C127.25 12.771 126.621 9.34877 124.953 6.85215C126.345 4.1079 127.047 0.393423 120.942 0.0240053C113.797 -0.410365 114.235 5.15526 114.995 8.19992C114.65 9.86131 114.514 11.559 114.589 13.254L107.281 12.1904L107.241 12.7831H105.503L100.185 59.3948L104.716 59.1674L121.319 60.8968C122.647 72.9658 124.733 87.8806 127.21 91.3961C127.292 91.5148 127.383 91.6275 127.482 91.7331V113.09C127.482 113.09 127.185 140.695 122.139 145.132C125.235 144.031 128.509 143.517 131.793 143.618C131.736 143.801 131.679 143.996 131.622 144.203C130.884 146.927 130.369 149.708 130.084 152.517C130.013 153.136 129.95 153.783 129.893 154.457C129.428 160.64 129.514 166.853 130.149 173.021C132.227 194.975 135.491 210.702 135.491 210.702L136.401 223.465C136.401 223.465 135.511 245.123 137.882 252.243C138.776 253.066 139.803 253.732 140.919 254.212C140.939 254.415 140.963 254.618 140.984 254.833C141.004 255.048 141.036 255.381 141.065 255.665C140.001 256.148 138.016 258.065 137.586 265.591C137.586 265.591 138.179 271.23 136.697 273.897C135.215 276.564 136.104 284.281 140.553 285.17C143.397 285.693 146.312 285.693 149.156 285.17C149.156 285.17 151.234 285.17 149.748 277.753L149.488 275.853C149.456 272.18 149.61 268.246 150.341 267.073C151.823 264.698 149.748 262.327 149.748 262.327C149.748 262.327 149.602 262.408 149.363 262.518C148.981 260.468 148.482 257.139 148.66 254.598C148.66 254.383 148.697 254.192 148.721 253.969C149.627 253.496 150.47 252.913 151.234 252.235V224.058C151.234 224.058 150.938 180.743 154.202 179.849C154.202 179.849 155.683 195.572 155.091 203.289C154.498 211.006 155.98 219.312 155.98 219.312L156.572 250.761C156.572 250.761 157.141 251.033 158.058 251.354L157.997 251.927C157.636 255.422 157.055 260.699 156.528 263.931C156.172 264.072 155.855 264.297 155.604 264.587C155.353 264.876 155.176 265.222 155.087 265.595C154.198 268.563 154.79 275.979 153.008 278.058C151.957 279.276 150.698 281.756 151.315 283.51C150.93 285.048 151.1 287.452 155.679 287.849C162.503 288.442 165.471 284.882 165.471 284.882C165.471 284.882 166.36 283.4 165.471 280.729C164.582 278.058 165.767 273.312 165.767 273.312C165.767 273.312 166.405 269.285 165.361 268.757C165.272 268.278 165.191 267.974 165.191 267.974C165.205 267.062 164.869 266.179 164.253 265.506C164.229 262.4 164.354 256.656 165.447 252.872C165.511 252.657 165.576 252.466 165.645 252.243C166.525 252.091 167.373 251.794 168.154 251.362C168.154 251.362 167.858 244.538 169.936 239.793C172.015 235.047 170.825 216.056 170.825 216.056C170.825 216.056 169.936 211.067 171.191 207.024C172.628 202.543 173.706 197.955 174.414 193.303L176.164 181.047C176.164 181.047 180.771 166.128 174.702 150.816C174.455 150.182 174.183 149.549 173.89 148.916C173.387 147.816 172.827 146.711 172.202 145.615C172.104 145.445 171.999 145.27 171.897 145.1C172.534 144.941 172.896 144.848 172.896 144.848C172.896 144.848 164.886 126.174 169.928 116.663C169.928 116.663 172.77 113.821 173.176 110.699C173.679 106.571 174.227 102.446 175.129 98.3867L175.287 97.6722C175.287 97.6722 175.311 97.5342 175.352 97.2865C175.465 97.2134 175.575 97.1363 175.685 97.0551C184.234 90.8116 191.606 64.7412 191.606 64.7412L193.981 60.2757L195.11 57.8887L192.796 78.0768L210.893 82.5423L222.463 81.6532L222.43 79.1647L231.248 78.4787L241.912 74.001ZM127.189 15.1377L123.974 14.6668C123.41 11.7642 123.028 9.86027 123.028 9.86027C123.702 9.02722 124.299 8.13448 124.811 7.19315C126.365 9.57204 126.962 12.8197 127.189 15.1214V15.1377ZM115.181 8.90628C115.405 9.66947 115.608 10.1607 115.608 10.1607L116.014 13.5098L114.917 13.3515C114.855 11.8591 114.945 10.3642 115.185 8.89004L115.181 8.90628ZM216.589 32.2933L212.237 32.8535C212.85 31.0511 213.609 28.0957 213.166 25.4205C213.592 25.0305 213.921 24.547 214.128 24.0081C214.336 23.4692 214.415 22.8896 214.36 22.3149C216.946 25.4042 216.702 30.8603 216.589 32.2811V32.2933ZM209.363 27.6614C210.66 27.2277 211.862 26.5513 212.907 25.6681C213.28 28.2946 212.501 31.181 211.908 32.8941L207.848 33.4137L206.728 33.1986L209.363 27.6614Z" fill="url(#paint0_linear)"/>
<path d="M241.137 74.7682L230.545 79.189L218.241 36.2838L221.127 32.8575L226.417 32.0375L241.137 74.7682Z" fill="#1DD1A1"/>
<path opacity="0.2" d="M241.137 74.7682L230.545 79.189L218.241 36.2838L221.127 32.8575L226.417 32.0375L241.137 74.7682Z" fill="white"/>
<path d="M221.127 32.8575L202.746 35.2161L212.168 80.618L230.545 79.1891L221.127 32.8575Z" fill="#1DD1A1"/>
<path opacity="0.07" d="M221.127 32.8575L202.746 35.2161L212.168 80.618L230.545 79.1891L221.127 32.8575Z" fill="white"/>
<path d="M216.349 33.8806L216.057 33.844C216.057 33.7344 217.275 23.0172 210.548 21.6654L210.605 21.3772C217.62 22.7859 216.373 33.771 216.349 33.8806Z" fill="#535461"/>
<path d="M168.601 65.1635H148.352V94.8021H168.601V65.1635Z" fill="#774E55"/>
<path opacity="0.2" d="M168.601 65.1635H148.352V94.8021H168.601V65.1635Z" fill="black"/>
<path d="M221.858 82.3271L210.414 83.208L212.176 38.6058L215.988 36.2594L221.269 37.1403L221.858 82.3271Z" fill="#1DD1A1"/>
<path opacity="0.2" d="M221.858 82.3271L210.414 83.208L212.176 38.6058L215.988 36.2594L221.269 37.1403L221.858 82.3271Z" fill="black"/>
<path d="M215.988 36.2594L197.797 32.7357L192.516 78.8074L210.414 83.208L215.988 36.2594Z" fill="#1DD1A1"/>
<path d="M108.885 14.2527H106.242L100.961 60.3203L112.697 59.7358L108.885 14.2527Z" fill="#1DD1A1"/>
<path opacity="0.2" d="M108.885 14.2527H106.242L100.961 60.3203L112.697 59.7358L108.885 14.2527Z" fill="black"/>
<path d="M108.004 13.6641L104.777 60.0281L132.946 62.9631L136.173 17.7723L108.004 13.6641Z" fill="#1DD1A1"/>
<path d="M142.043 254.285C142.043 254.285 138.524 253.993 137.935 264.264C137.935 264.264 138.524 269.837 137.054 272.48C135.585 275.123 136.465 282.751 140.87 283.632C143.688 284.151 146.577 284.151 149.395 283.632C149.395 283.632 151.449 283.632 149.984 276.296L147.049 254.874L142.043 254.285Z" fill="#5C3D53"/>
<path opacity="0.05" d="M142.043 254.285C142.043 254.285 138.524 253.993 137.935 264.264C137.935 264.264 138.524 269.837 137.054 272.48C135.585 275.123 136.465 282.751 140.87 283.632C143.688 284.151 146.577 284.151 149.395 283.632C149.395 283.632 151.449 283.632 149.984 276.296L147.049 254.874L142.043 254.285Z" fill="black"/>
<path d="M160.494 84.836C160.242 89.204 161.115 91.7372 161.115 91.7372L153.487 93.7913C153.487 93.7913 140.87 95.5531 145.859 90.5437C147.585 88.8184 148.433 85.859 148.802 82.7331C149.034 80.598 149.105 78.4486 149.018 76.3028C148.95 74.2924 148.776 72.2869 148.498 70.2947C148.498 70.2947 166.985 63.84 162.877 74.403C162.128 76.3135 161.538 78.2822 161.111 80.2893C160.793 81.7875 160.587 83.3072 160.494 84.836Z" fill="#F8BDC5"/>
<path opacity="0.1" d="M162.877 74.407C162.128 76.3176 161.538 78.2863 161.111 80.2933C158.923 80.7583 156.65 80.6343 154.526 79.9339C152.401 79.2336 150.5 77.9819 149.018 76.3068C148.95 74.2964 148.776 72.2909 148.498 70.2987C148.498 70.2987 166.985 63.8441 162.877 74.407Z" fill="black"/>
<path d="M158.476 79.9807C165.445 79.9807 171.093 74.3318 171.093 67.3636C171.093 60.3954 165.445 54.7466 158.476 54.7466C151.508 54.7466 145.859 60.3954 145.859 67.3636C145.859 74.3318 151.508 79.9807 158.476 79.9807Z" fill="#F8BDC5"/>
<path d="M136.173 73.5261V77.342L129.719 94.0673L127.957 92.3055C127.859 92.2011 127.77 92.0899 127.689 91.9726C123.426 85.9158 120.325 45.6492 120.325 45.6492L116.221 11.6018C116.221 11.6018 111.82 1.04703 121.498 1.62349C131.176 2.19994 123.552 11.3055 123.552 11.3055C123.552 11.3055 130.007 43.5829 129.126 44.7561C128.245 45.9293 129.126 49.453 129.126 49.453C129.126 49.453 131.769 56.204 131.472 61.1891C131.176 66.1742 136.173 73.5261 136.173 73.5261Z" fill="#F8BDC5"/>
<path d="M208.944 28.9238L193.685 61.2012L191.338 65.5936C191.338 65.5936 184.031 91.3798 175.591 97.5544C175.106 97.9166 174.58 98.2204 174.024 98.4597L172.263 84.3731L173.886 80.281L174.008 79.9685C175.891 78.1321 177.387 75.9374 178.409 73.5138C180.17 69.4055 185.16 61.189 185.16 61.189C185.16 61.189 186.041 58.8426 186.041 57.0808C186.041 55.3189 202.766 26.2689 202.766 26.2689C202.766 26.2689 204.231 13.0632 211.291 19.5178C218.35 25.9725 208.944 28.9238 208.944 28.9238Z" fill="#F8BDC5"/>
<path d="M149.963 263.086C149.963 263.086 139.985 267.195 141.158 263.379C141.873 261.065 141.609 256.692 141.292 253.636C141.089 251.642 140.862 250.189 140.862 250.189L149.387 251.07C149.089 251.814 148.923 252.604 148.896 253.404C148.616 257.297 149.963 263.086 149.963 263.086Z" fill="#F8BDC5"/>
<path d="M165.479 251.671C163.94 257.013 164.342 266.318 164.342 266.318C164.342 266.318 155.245 267.491 156.126 265.144C156.739 263.521 157.636 255.475 158.123 250.745C158.338 248.679 158.472 247.246 158.472 247.246L166.689 249.008C166.129 249.816 165.72 250.718 165.479 251.671V251.671Z" fill="#F8BDC5"/>
<path opacity="0.1" d="M140.866 250.177L149.391 251.058C149.093 251.801 148.927 252.591 148.9 253.392C147.734 254.002 146.446 254.34 145.131 254.38C143.816 254.42 142.509 254.161 141.308 253.623C141.093 251.626 140.866 250.177 140.866 250.177Z" fill="black"/>
<path opacity="0.1" d="M166.693 249.004C166.13 249.812 165.718 250.716 165.475 251.671C162.702 252.117 159.792 251.334 158.123 250.745C158.338 248.679 158.472 247.246 158.472 247.246L166.693 249.004Z" fill="black"/>
<path d="M176.083 180.629L174.353 192.751C173.652 197.352 172.585 201.89 171.162 206.322C169.92 210.32 170.801 215.253 170.801 215.253C170.801 215.253 171.974 234.032 169.92 238.729C167.866 243.426 168.158 250.173 168.158 250.173C163.461 252.816 156.714 249.584 156.714 249.584L156.126 218.48C156.126 218.48 154.66 210.264 155.245 202.648C155.829 195.032 154.364 179.468 154.364 179.468C151.116 180.349 151.429 223.189 151.429 223.189V251.066C144.386 257.228 138.223 251.066 138.223 251.066C135.877 244.023 136.758 222.601 136.758 222.601L135.877 209.983C135.877 209.983 132.629 194.431 130.599 172.717C129.972 166.616 129.888 160.471 130.348 154.356C130.405 153.69 130.467 153.05 130.534 152.435C130.816 149.658 131.324 146.909 132.053 144.215C132.285 143.326 132.584 142.457 132.946 141.613L164.476 143.078L166.336 143.163L170.801 143.37C171.288 144.105 171.747 144.852 172.173 145.599C172.79 146.683 173.346 147.775 173.842 148.847C174.126 149.472 174.394 150.101 174.654 150.726C180.649 165.864 176.083 180.629 176.083 180.629Z" fill="#5E52AD"/>
<path opacity="0.1" d="M141.455 144.54C141.455 144.54 140.074 158.342 130.344 154.347C130.401 153.682 130.463 153.042 130.53 152.427C132.82 153.048 139.157 153.905 139.396 144.536L141.455 144.54Z" fill="black"/>
<path opacity="0.1" d="M174.637 150.73C167.898 153.138 165.357 146.728 164.488 143.07L166.348 143.155C167.359 148.908 171.394 149.245 173.85 148.839C174.126 149.48 174.39 150.109 174.637 150.73Z" fill="black"/>
<path d="M144.658 261.527C143.16 261.292 140.87 260.468 141.589 257.59C141.589 257.59 138.816 256.632 139.108 268.075C139.108 268.075 138.816 273.649 138.227 274.826C137.639 276.004 138.227 283.043 144.39 282.454C144.39 282.454 148.79 283.92 149.963 281.573C149.963 281.573 149.082 268.075 150.552 265.741C152.022 263.407 149.963 261.044 149.963 261.044C149.963 261.044 147.885 262.197 146.391 261.856C145.823 261.698 145.238 261.621 144.658 261.527Z" fill="#5C3D53"/>
<path d="M152.018 280.692C152.018 280.692 149.082 285.682 155.834 286.266C162.585 286.851 165.516 283.331 165.516 283.331C165.516 283.331 166.396 281.866 165.516 279.223C164.635 276.58 165.808 271.887 165.808 271.887C165.808 271.887 166.689 266.314 164.635 267.487C162.58 268.66 152.018 280.692 152.018 280.692Z" fill="#5C3D53"/>
<path opacity="0.05" d="M152.018 280.692C152.018 280.692 149.082 285.682 155.834 286.266C162.585 286.851 165.516 283.331 165.516 283.331C165.516 283.331 166.396 281.866 165.516 279.223C164.635 276.58 165.808 271.887 165.808 271.887C165.808 271.887 166.689 266.314 164.635 267.487C162.58 268.66 152.018 280.692 152.018 280.692Z" fill="black"/>
<path d="M159.65 262.794C159.65 262.794 156.13 261.328 155.249 264.259C154.368 267.19 154.957 274.53 153.195 276.584C151.433 278.638 149.087 284.212 156.13 283.92C163.173 283.628 164.655 281.277 164.655 281.277C164.655 281.277 164.363 273.941 165.244 271.887C166.125 269.833 165.244 266.61 165.244 266.61C165.244 266.61 165.516 262.481 159.65 262.794Z" fill="#5C3D53"/>
<path opacity="0.2" d="M115.632 18.361C115.957 18.361 116.221 18.0974 116.221 17.7723C116.221 17.4473 115.957 17.1837 115.632 17.1837C115.307 17.1837 115.043 17.4473 115.043 17.7723C115.043 18.0974 115.307 18.361 115.632 18.361Z" fill="black"/>
<path opacity="0.2" d="M127.957 19.8264C128.282 19.8264 128.545 19.5629 128.545 19.2378C128.545 18.9127 128.282 18.6492 127.957 18.6492C127.632 18.6492 127.368 18.9127 127.368 19.2378C127.368 19.5629 127.632 19.8264 127.957 19.8264Z" fill="black"/>
<path d="M128.103 19.2419H127.811C127.811 19.116 128.018 6.7385 120.909 5.59777C119.509 5.37449 118.364 5.69114 117.507 6.53958C114.572 9.45027 115.786 17.6708 115.798 17.752L115.51 17.7967C115.457 17.4516 114.264 9.34472 117.304 6.33254C118.23 5.41103 119.464 5.06597 120.958 5.30548C128.314 6.48275 128.107 19.116 128.103 19.2419Z" fill="#535461"/>
<path d="M211.133 35.7358L210.869 35.6099C210.913 35.5125 215.436 25.7168 209.46 22.3028L209.606 22.047C215.813 25.595 211.181 35.6343 211.133 35.7358Z" fill="#535461"/>
<path opacity="0.1" d="M161.115 91.7209L153.487 93.775C153.487 93.775 140.87 95.5368 145.859 90.5274C147.585 88.8021 148.433 85.8426 148.802 82.7168C150.796 85.8426 153.195 84.9536 153.195 84.9536L160.47 84.8115H160.498C160.242 89.2039 161.115 91.7209 161.115 91.7209Z" fill="black"/>
<path opacity="0.1" d="M175.595 97.5626C175.11 97.9248 174.584 98.2287 174.028 98.4679L172.267 84.3813L173.89 80.2893L174.296 79.9767C177.962 81.02 176.07 94.5139 175.595 97.5626Z" fill="black"/>
<path opacity="0.1" d="M136.173 73.526V77.342L129.718 94.0673L127.957 92.3054C127.859 92.2011 127.77 92.0898 127.689 91.9726C128.452 83.2527 136.173 73.526 136.173 73.526Z" fill="black"/>
<path opacity="0.1" d="M172.169 145.591C168.065 146.618 146.639 151.652 140.281 146.886C137.773 145.006 134.817 144.316 132.053 144.207C132.285 143.318 132.584 142.449 132.946 141.604L164.476 143.07L166.336 143.155L170.801 143.362C171.288 144.101 171.743 144.844 172.169 145.591Z" fill="black"/>
<path d="M116.955 4.12817C116.955 4.12817 121.356 11.4638 124.291 4.12817Z" fill="#F8BDC5"/>
<path d="M207.479 19.2378C207.479 19.2378 205.717 28.0429 212.756 23.9347Z" fill="#F8BDC5"/>
<g opacity="0.1">
<path opacity="0.1" d="M153 182.362C152.858 180.576 152.752 179.46 152.752 179.46C149.505 180.341 149.817 223.181 149.817 223.181V251.058C147.755 252.86 145.758 253.607 143.992 253.766C146.111 253.952 148.636 253.36 151.299 251.058V223.181C151.299 223.181 151.072 192.138 153 182.362Z" fill="black"/>
<path opacity="0.1" d="M174.491 150.73C174.244 150.105 173.98 149.476 173.679 148.851C173.184 147.763 172.628 146.671 172.011 145.603C171.605 144.856 171.126 144.113 170.639 143.374L166.173 143.167L164.314 143.082L132.783 141.617L132.755 141.682L162.848 143.082L164.708 143.167L169.173 143.374C169.66 144.109 170.119 144.856 170.545 145.603C171.162 146.687 171.718 147.779 172.214 148.851C172.498 149.476 172.766 150.105 173.026 150.73C179.026 165.872 174.471 180.629 174.471 180.629L172.742 192.751C172.04 197.352 170.973 201.89 169.551 206.322C168.308 210.32 169.189 215.253 169.189 215.253C169.189 215.253 170.363 234.032 168.308 238.729C166.254 243.426 166.547 250.173 166.547 250.173C165.413 250.785 164.156 251.132 162.869 251.188C164.645 251.348 166.43 250.995 168.012 250.173C168.012 250.173 167.72 243.422 169.774 238.729C171.828 234.036 170.655 215.253 170.655 215.253C170.655 215.253 169.774 210.316 171.016 206.322C172.438 201.89 173.505 197.352 174.207 192.751L175.936 180.629C175.936 180.629 180.491 165.864 174.491 150.73Z" fill="black"/>
</g>
<path d="M160.469 85.4124C164.529 87.3245 174.028 79.9808 174.028 79.9808C178.137 81.154 175.202 98.1756 175.202 98.1756L175.043 98.882C174.15 102.897 173.61 106.977 173.111 111.061C172.733 114.142 169.92 116.959 169.92 116.959C164.931 126.349 172.855 144.836 172.855 144.836C172.855 144.836 147.325 151.587 140.285 146.301C133.246 141.016 122.679 145.128 122.679 145.128C127.668 140.728 127.957 113.435 127.957 113.435V92.3258C128.545 83.5207 136.482 73.5464 136.482 73.5464C139.729 82.6438 148.754 83.2446 148.754 83.2446C150.755 86.4923 153.219 85.5789 153.219 85.5789L160.469 85.4124Z" fill="#EB6475"/>
<path opacity="0.1" d="M155.192 49.5829C154.185 49.364 153.142 49.364 152.135 49.5829C148.944 50.4638 147.942 54.4868 145.478 56.6952C144.593 57.5071 143.501 58.0511 142.697 58.932C141.268 60.499 140.98 62.821 141.284 64.9198C141.589 67.0186 142.4 69.0078 142.908 71.0659C143.409 73.1262 143.599 75.2498 143.472 77.3664C143.483 78.0689 143.295 78.7602 142.928 79.3596C142.34 80.1715 141.256 80.4272 140.493 81.0768C138.162 83.0822 140.087 87.2432 138.377 89.8048C137.643 90.913 136.267 91.6438 135.986 92.9428C135.787 93.8643 136.21 94.794 136.624 95.6424C137.712 97.8751 138.84 100.169 140.683 101.833C142.526 103.498 144.804 104.334 147.069 105.182C147.755 105.438 148.616 105.661 149.139 105.154C149.785 104.521 149.298 103.449 148.851 102.665C148.145 101.448 147.593 99.978 148.007 98.6059C148.421 97.2337 149.748 96.3244 150.641 95.1796C152.943 92.2162 152.188 87.9617 151.047 84.3893C150.564 82.8833 150.02 81.2797 150.43 79.7493C150.605 79.0917 150.95 78.4949 151.169 77.8494C152.143 74.9753 150.507 71.821 150.986 68.8251C151.236 67.6552 151.645 66.5254 152.204 65.4678L154.782 59.9266C155.041 59.2597 155.429 58.6501 155.923 58.1322C156.724 57.4881 157.739 57.1719 158.764 57.2473C159.809 57.2706 160.839 57.5062 161.79 57.9395C162.741 58.3729 163.594 58.995 164.298 59.7682C167.058 62.8373 166.884 67.4814 166.551 71.5734L166.311 74.5287C166.137 76.6559 165.905 78.9252 164.566 80.5815C163.522 81.8643 161.838 82.7371 161.407 84.3366C161.034 85.7128 161.736 87.2067 161.367 88.5829C160.815 90.641 158.273 91.3839 156.93 93.0484C156.364 93.7717 156.03 94.6486 155.971 95.5647C155.912 96.4807 156.13 97.3934 156.597 98.1837C157.108 98.9956 157.924 99.8075 157.815 100.761C157.721 101.529 157.031 102.15 157.035 102.921C157.068 103.266 157.205 103.593 157.427 103.859C157.65 104.125 157.948 104.318 158.281 104.411C158.953 104.585 159.654 104.618 160.34 104.508L167.618 103.851C168.074 103.849 168.521 103.726 168.913 103.494C169.421 103.128 169.587 102.454 169.656 101.833C169.949 99.2432 169.25 96.4137 170.545 94.1485C170.951 93.4218 171.548 92.817 171.999 92.1187C174.483 88.2216 171.978 82.936 173.33 78.5152C173.971 76.4164 175.465 74.614 175.863 72.4584C176.391 69.5842 174.893 66.775 174.313 63.9333C173.716 60.9983 174.036 57.7669 172.469 55.2134C171.272 53.2649 169.128 52.0511 166.912 51.4949C164.882 50.9834 162.852 51.1661 160.823 50.9469C158.882 50.7236 157.08 49.8873 155.192 49.5829Z" fill="black"/>
<path d="M155.192 48.9942C154.185 48.7754 153.142 48.7754 152.135 48.9942C148.944 49.8752 147.942 53.8982 145.478 56.1065C144.593 56.9185 143.501 57.4624 142.697 58.3434C141.268 59.9103 140.98 62.2324 141.284 64.3312C141.589 66.43 142.4 68.4191 142.908 70.4773C143.409 72.5376 143.599 74.6612 143.472 76.7777C143.483 77.4803 143.295 78.1715 142.928 78.771C142.34 79.5829 141.256 79.8386 140.493 80.4881C138.162 82.4936 140.087 86.6546 138.377 89.2162C137.643 90.3244 136.267 91.0551 135.986 92.3542C135.787 93.2757 136.21 94.2053 136.624 95.0538C137.712 97.2865 138.84 99.5802 140.683 101.245C142.526 102.909 144.804 103.745 147.069 104.594C147.755 104.849 148.616 105.073 149.139 104.565C149.785 103.932 149.298 102.86 148.851 102.077C148.145 100.859 147.593 99.3894 148.007 98.0172C148.421 96.6451 149.748 95.7358 150.641 94.591C152.943 91.6275 152.188 87.3731 151.047 83.8007C150.564 82.2946 150.02 80.6911 150.43 79.1607C150.605 78.503 150.95 77.9063 151.169 77.2608C152.143 74.3866 150.507 71.2324 150.986 68.2364C151.236 67.0665 151.645 65.9367 152.204 64.8792L154.782 59.3379C155.041 58.671 155.429 58.0615 155.923 57.5436C156.724 56.8995 157.739 56.5832 158.764 56.6586C159.809 56.682 160.839 56.9175 161.79 57.3509C162.741 57.7843 163.594 58.4064 164.298 59.1796C167.058 62.2486 166.884 66.8927 166.551 70.9848L166.311 73.9401C166.137 76.0673 165.905 78.3366 164.566 79.9929C163.522 81.2757 161.838 82.1485 161.407 83.748C161.034 85.1241 161.736 86.618 161.367 87.9942C160.815 90.0524 158.273 90.7953 156.93 92.4597C156.364 93.1831 156.03 94.06 155.971 94.976C155.912 95.8921 156.13 96.8048 156.597 97.595C157.108 98.4069 157.924 99.2189 157.815 100.173C157.721 100.94 157.031 101.561 157.035 102.333C157.068 102.678 157.205 103.005 157.427 103.271C157.65 103.537 157.948 103.729 158.281 103.822C158.953 103.996 159.654 104.03 160.34 103.92L167.618 103.262C168.074 103.26 168.521 103.137 168.913 102.905C169.421 102.54 169.587 101.866 169.656 101.245C169.949 98.6546 169.25 95.8251 170.545 93.5599C170.951 92.8332 171.548 92.2283 171.999 91.5301C174.483 87.6329 171.978 82.3474 173.33 77.9266C173.971 75.8278 175.465 74.0254 175.863 71.8697C176.391 68.9956 174.893 66.1864 174.313 63.3447C173.716 60.4097 174.036 57.1783 172.469 54.6248C171.272 52.6762 169.128 51.4624 166.912 50.9063C164.882 50.3948 162.852 50.5775 160.823 50.3582C158.882 50.139 157.08 49.3028 155.192 48.9942Z" fill="#774E55"/>
<path opacity="0.1" d="M139.547 116.22C139.547 116.22 145.417 117.982 153.926 114.166H158.322C158.322 114.166 158.614 118.274 170.058 116.512" fill="black"/>
<path opacity="0.1" d="M152.568 298.032C216.357 298.032 268.068 293.331 268.068 287.532C268.068 281.733 216.357 277.032 152.568 277.032C88.7787 277.032 37.0676 281.733 37.0676 287.532C37.0676 293.331 88.7787 298.032 152.568 298.032Z" fill="#1DD1A1"/>
<path opacity="0.1" d="M82.7456 104.768H54.4668C53.3077 104.768 52.368 105.708 52.368 106.867V114.848C52.368 116.007 53.3077 116.947 54.4668 116.947H82.7456C83.9047 116.947 84.8444 116.007 84.8444 114.848V106.867C84.8444 105.708 83.9047 104.768 82.7456 104.768Z" fill="#1DD1A1"/>
<path opacity="0.1" d="M97.3599 118.165H69.0812C67.922 118.165 66.9824 119.104 66.9824 120.263V128.245C66.9824 129.404 67.922 130.343 69.0812 130.343H97.3599C98.5191 130.343 99.4587 129.404 99.4587 128.245V120.263C99.4587 119.104 98.5191 118.165 97.3599 118.165Z" fill="#1DD1A1"/>
<path opacity="0.1" d="M225.235 105.58H196.957C195.798 105.58 194.858 106.52 194.858 107.679V115.66C194.858 116.819 195.798 117.759 196.957 117.759H225.235C226.395 117.759 227.334 116.819 227.334 115.66V107.679C227.334 106.52 226.395 105.58 225.235 105.58Z" fill="#1DD1A1"/>
<path opacity="0.1" d="M239.85 118.977H211.571C210.412 118.977 209.472 119.916 209.472 121.075V129.057C209.472 130.216 210.412 131.155 211.571 131.155H239.85C241.009 131.155 241.949 130.216 241.949 129.057V121.075C241.949 119.916 241.009 118.977 239.85 118.977Z" fill="#1DD1A1"/>
<path opacity="0.1" d="M72.5967 131.561H44.318C43.1588 131.561 42.2192 132.501 42.2192 133.66V141.641C42.2192 142.8 43.1588 143.74 44.318 143.74H72.5967C73.7559 143.74 74.6955 142.8 74.6955 141.641V133.66C74.6955 132.501 73.7559 131.561 72.5967 131.561Z" fill="#1DD1A1"/>
<path opacity="0.1" d="M105.073 179.058H76.7943C75.6352 179.058 74.6955 179.998 74.6955 181.157V189.138C74.6955 190.297 75.6352 191.236 76.7943 191.236H105.073C106.232 191.236 107.172 190.297 107.172 189.138V181.157C107.172 179.998 106.232 179.058 105.073 179.058Z" fill="#1DD1A1"/>
<path opacity="0.1" d="M119.687 192.454H91.4086C90.2495 192.454 89.3098 193.394 89.3098 194.553V202.534C89.3098 203.693 90.2495 204.633 91.4086 204.633H119.687C120.846 204.633 121.786 203.693 121.786 202.534V194.553C121.786 193.394 120.846 192.454 119.687 192.454Z" fill="#1DD1A1"/>
<path opacity="0.1" d="M94.9242 205.851H66.6454C65.4863 205.851 64.5466 206.79 64.5466 207.95V215.931C64.5466 217.09 65.4863 218.029 66.6454 218.029H94.9242C96.0833 218.029 97.0229 217.09 97.0229 215.931V207.95C97.0229 206.79 96.0833 205.851 94.9242 205.851Z" fill="#1DD1A1"/>
<path opacity="0.1" d="M235.79 213.158H207.511C206.352 213.158 205.413 214.098 205.413 215.257V223.238C205.413 224.397 206.352 225.337 207.511 225.337H235.79C236.949 225.337 237.889 224.397 237.889 223.238V215.257C237.889 214.098 236.949 213.158 235.79 213.158Z" fill="#1DD1A1"/>
<path opacity="0.1" d="M211.027 226.554H182.748C181.589 226.554 180.65 227.494 180.65 228.653V236.634C180.65 237.793 181.589 238.733 182.748 238.733H211.027C212.186 238.733 213.126 237.793 213.126 236.634V228.653C213.126 227.494 212.186 226.554 211.027 226.554Z" fill="#1DD1A1"/>
<g opacity="0.1">
<path opacity="0.1" d="M282.8 262.802C282.8 262.802 279.645 246.812 286.141 235.851C288.896 231.271 290.091 225.92 289.547 220.603C289.269 218.082 288.761 215.591 288.028 213.162" stroke="#535461" stroke-width="2" stroke-miterlimit="10"/>
<path opacity="0.1" d="M292.084 206.228C291.909 208.136 287.943 213.353 287.943 213.353C287.943 213.353 284.996 207.503 285.17 205.595C285.302 204.719 285.764 203.927 286.461 203.38C287.158 202.833 288.038 202.574 288.92 202.655C289.802 202.736 290.62 203.151 291.206 203.815C291.792 204.48 292.102 205.343 292.072 206.228H292.084Z" fill="#1DD1A1"/>
<path opacity="0.1" d="M296.821 217.323C295.636 218.829 289.474 221.054 289.474 221.054C289.474 221.054 290.18 214.559 291.365 213.036C291.944 212.344 292.77 211.904 293.667 211.809C294.565 211.715 295.464 211.975 296.173 212.532C296.883 213.09 297.348 213.902 297.469 214.796C297.59 215.691 297.357 216.597 296.821 217.323V217.323Z" fill="#1DD1A1"/>
<path opacity="0.1" d="M294.913 235.364C293.131 236.066 286.689 234.877 286.689 234.877C286.689 234.877 290.586 229.599 292.372 228.909C293.221 228.605 294.155 228.643 294.976 229.015C295.797 229.387 296.442 230.064 296.773 230.903C297.103 231.742 297.095 232.676 296.748 233.509C296.402 234.342 295.745 235.007 294.917 235.364H294.913Z" fill="#1DD1A1"/>
<path opacity="0.1" d="M290.395 248.679C288.771 249.674 282.207 249.588 282.207 249.588C282.207 249.588 285.158 243.739 286.798 242.744C287.188 242.495 287.624 242.326 288.08 242.248C288.536 242.169 289.003 242.183 289.454 242.288C289.905 242.393 290.33 242.587 290.705 242.859C291.079 243.13 291.396 243.474 291.636 243.87C291.876 244.266 292.034 244.705 292.101 245.163C292.169 245.621 292.144 246.088 292.028 246.536C291.913 246.984 291.709 247.404 291.428 247.772C291.148 248.14 290.796 248.449 290.395 248.679V248.679Z" fill="#1DD1A1"/>
<path opacity="0.1" d="M282.187 220.757C283.433 222.215 289.685 224.176 289.685 224.176C289.685 224.176 288.706 217.68 287.46 216.243C286.861 215.543 286.009 215.11 285.091 215.038C284.173 214.967 283.264 215.263 282.564 215.862C281.864 216.46 281.431 217.312 281.36 218.23C281.288 219.149 281.584 220.058 282.183 220.757H282.187Z" fill="#1DD1A1"/>
<path opacity="0.1" d="M277.1 236.407C278.724 237.422 285.276 237.426 285.276 237.426C285.276 237.426 282.402 231.54 280.778 230.525C279.998 230.055 279.064 229.91 278.178 230.122C277.293 230.334 276.526 230.886 276.043 231.658C275.56 232.431 275.401 233.362 275.599 234.251C275.796 235.14 276.336 235.916 277.1 236.411V236.407Z" fill="#1DD1A1"/>
<path opacity="0.1" d="M274.246 252.296C275.675 253.571 282.134 254.683 282.134 254.683C282.134 254.683 280.299 248.395 278.886 247.12C278.197 246.526 277.301 246.227 276.393 246.287C275.485 246.347 274.637 246.761 274.031 247.44C273.425 248.119 273.11 249.009 273.155 249.918C273.199 250.827 273.598 251.683 274.267 252.3L274.246 252.296Z" fill="#1DD1A1"/>
</g>
<g opacity="0.1">
<path opacity="0.1" d="M25.8308 265.238C25.8308 265.238 22.6766 249.247 29.1718 238.287C31.9271 233.706 33.1223 228.356 32.5778 223.039C32.3 220.517 31.7918 218.027 31.0595 215.598" stroke="#535461" stroke-width="2" stroke-miterlimit="10"/>
<path opacity="0.1" d="M35.115 208.664C34.9404 210.572 30.9743 215.789 30.9743 215.789C30.9743 215.789 28.0271 209.939 28.2016 208.031C28.3334 207.155 28.7951 206.362 29.4922 205.816C30.1893 205.269 31.0689 205.01 31.9511 205.091C32.8332 205.172 33.651 205.587 34.2369 206.251C34.8229 206.915 35.1327 207.779 35.1028 208.664H35.115Z" fill="#1DD1A1"/>
<path opacity="0.1" d="M39.8525 219.759C38.6671 221.265 32.5047 223.489 32.5047 223.489C32.5047 223.489 33.2111 216.994 34.3964 215.472C34.9751 214.779 35.8007 214.339 36.6983 214.245C37.5959 214.151 38.4949 214.41 39.2046 214.968C39.9142 215.525 40.3788 216.338 40.4998 217.232C40.6207 218.126 40.3885 219.033 39.8525 219.759Z" fill="#1DD1A1"/>
<path opacity="0.1" d="M37.9445 237.799C36.1624 238.502 29.7199 237.312 29.7199 237.312C29.7199 237.312 33.6171 232.035 35.4033 231.345C36.2521 231.04 37.186 231.078 38.0073 231.45C38.8286 231.823 39.4729 232.5 39.8037 233.339C40.1345 234.177 40.1258 235.112 39.7796 235.945C39.4333 236.777 38.7767 237.442 37.9486 237.799H37.9445Z" fill="#1DD1A1"/>
<path opacity="0.1" d="M33.4262 251.115C31.8024 252.109 25.2381 252.024 25.2381 252.024C25.2381 252.024 28.1894 246.174 29.8295 245.18C30.2194 244.93 30.6552 244.762 31.1113 244.683C31.5674 244.605 32.0346 244.619 32.4853 244.724C32.936 244.829 33.3612 245.022 33.7359 245.294C34.1105 245.566 34.4271 245.91 34.6669 246.305C34.9068 246.701 35.065 247.141 35.1325 247.599C35.1999 248.056 35.175 248.523 35.0594 248.971C34.9438 249.419 34.7398 249.84 34.4593 250.208C34.1788 250.576 33.8276 250.884 33.4262 251.115V251.115Z" fill="#1DD1A1"/>
<path opacity="0.1" d="M25.2179 223.193C26.4641 224.65 32.7158 226.611 32.7158 226.611C32.7158 226.611 31.7375 220.116 30.4912 218.679C29.8926 217.979 29.0405 217.546 28.1223 217.474C27.2042 217.403 26.2952 217.699 25.5954 218.297C24.8956 218.896 24.4622 219.748 24.3906 220.666C24.3191 221.584 24.6152 222.493 25.2138 223.193H25.2179Z" fill="#1DD1A1"/>
<path opacity="0.1" d="M20.1312 238.843C21.755 239.858 28.3071 239.862 28.3071 239.862C28.3071 239.862 25.4329 233.975 23.8091 232.96C23.029 232.49 22.0953 232.346 21.2095 232.558C20.3237 232.77 19.5568 233.322 19.0742 234.094C18.5915 234.867 18.4319 235.798 18.6296 236.687C18.8273 237.576 19.3666 238.352 20.1312 238.847V238.843Z" fill="#1DD1A1"/>
<path opacity="0.1" d="M17.2774 254.732C18.7063 256.006 25.1651 257.119 25.1651 257.119C25.1651 257.119 23.3301 250.83 21.9174 249.556C21.2278 248.962 20.3325 248.663 19.4243 248.722C18.5162 248.782 17.6679 249.196 17.0621 249.876C16.4563 250.555 16.1416 251.445 16.1857 252.354C16.2297 253.263 16.6291 254.118 17.2977 254.736L17.2774 254.732Z" fill="#1DD1A1"/>
</g>
<defs>
<linearGradient id="paint0_linear" x1="171.049" y1="287.91" x2="171.049" y2="0.0321214" gradientUnits="userSpaceOnUse">
<stop stop-color="#808080" stop-opacity="0.25"/>
<stop offset="0.54" stop-color="#808080" stop-opacity="0.12"/>
<stop offset="1" stop-color="#808080" stop-opacity="0.1"/>
</linearGradient>
</defs>
</svg>
