<svg width="200" height="290" viewBox="0 0 200 290" fill="none" xmlns="http://www.w3.org/2000/svg">
<g clip-path="url(#clip0)">
<path d="M43.8208 110.538C37.0753 97.7274 24.7292 94.6355 18.5942 101.142C12.4592 107.648 11.0499 125.326 17.7955 138.137C24.0394 149.996 35.3518 153.23 41.5826 148.787C41.5625 148.926 41.5612 149.069 41.5789 149.208L41.9302 151.673C41.957 151.86 42.0172 152.035 42.105 152.181C42.1929 152.327 42.3055 152.438 42.4322 152.504C42.5589 152.571 42.6954 152.59 42.8289 152.561C42.9624 152.531 43.0883 152.454 43.1947 152.336L46.1694 149.038C46.2759 148.92 46.3593 148.765 46.4118 148.588C46.4643 148.412 46.4841 148.219 46.4693 148.028C46.4545 147.838 46.4057 147.656 46.3274 147.5C46.2491 147.343 46.144 147.218 46.022 147.136L44.4219 146.056C44.3656 146.02 44.3065 145.994 44.2458 145.977C49.0485 138.772 50.0783 122.422 43.8208 110.538Z" fill="#CCCCCC"/>
<path d="M29.0657 105.702C32.3654 106.445 35.3379 108.959 37.3697 112.723C39.4015 116.487 40.3375 121.214 39.9844 125.929C39.9118 127.009 41.1009 127.002 41.173 125.929C41.5131 120.847 40.4869 115.771 38.3 111.717C36.1132 107.664 32.9274 104.934 29.3817 104.075C28.6335 103.894 28.3119 105.52 29.0657 105.702Z" fill="white"/>
<path d="M198.812 126.578C202.442 111.438 197.256 95.2395 190.005 91.7387C182.755 88.2379 171.684 96.587 168.055 111.727C164.695 125.742 169.213 140.81 175.319 145.59C175.227 145.645 175.143 145.725 175.072 145.824L173.839 147.629C173.745 147.767 173.677 147.936 173.642 148.121C173.607 148.307 173.606 148.501 173.639 148.687C173.672 148.873 173.738 149.044 173.831 149.183C173.923 149.323 174.04 149.426 174.168 149.484L177.767 151.101C177.896 151.158 178.033 151.169 178.165 151.13C178.298 151.092 178.421 151.006 178.523 150.881C178.626 150.756 178.704 150.596 178.75 150.416C178.797 150.236 178.81 150.042 178.789 149.852L178.512 147.369C178.501 147.283 178.483 147.199 178.458 147.118C185.361 148.664 195.445 140.623 198.812 126.578Z" fill="#CCCCCC"/>
<path d="M193.278 106.573C194.712 110.856 194.932 115.756 193.894 120.263C192.856 124.77 190.638 128.539 187.698 130.792C187.029 131.318 187.706 132.706 188.37 132.184C191.516 129.707 193.886 125.635 195.004 120.783C196.123 115.932 195.908 110.659 194.402 106.023C194.083 105.045 192.957 105.588 193.278 106.573Z" fill="white"/>
<path d="M113.539 27.9339C113.046 11.9566 104.068 -0.462416 96.4171 0.0132174C88.7658 0.48885 80.588 13.9742 81.0812 29.9515C81.5376 44.7405 89.6042 56.4512 96.5162 57.7574C96.4445 57.856 96.3868 57.9731 96.3462 58.1024L95.6588 60.42C95.6064 60.5967 95.5867 60.7895 95.6016 60.98C95.6164 61.1705 95.6654 61.3525 95.7437 61.5086C95.8221 61.6648 95.9272 61.7899 96.0492 61.8721C96.1712 61.9543 96.306 61.9909 96.4408 61.9785L100.208 61.6293C100.342 61.6168 100.473 61.5556 100.586 61.4515C100.7 61.3475 100.792 61.204 100.856 61.0347C100.919 60.8654 100.951 60.676 100.948 60.4843C100.946 60.2927 100.908 60.1052 100.84 59.9397L99.9462 57.7687C99.9139 57.694 99.8755 57.625 99.8318 57.5631C106.66 55.4448 113.996 42.755 113.539 27.9339Z" fill="#1DD1A1"/>
<path d="M103.263 12.148C105.695 15.399 107.154 19.8511 107.341 24.5853C107.527 29.3194 106.425 33.9743 104.263 37.5891C103.774 38.4238 104.76 39.3679 105.245 38.5387C107.542 34.6103 108.708 29.5947 108.508 24.4977C108.309 19.4007 106.759 14.5992 104.169 11.0561C103.622 10.3092 102.712 11.3955 103.263 12.148Z" fill="white"/>
<path d="M114.157 166.838C123.075 166.838 130.304 156.579 130.304 143.924C130.304 131.268 123.075 121.009 114.157 121.009C105.24 121.009 98.0109 131.268 98.0109 143.924C98.0109 156.579 105.24 166.838 114.157 166.838Z" fill="#1DD1A1"/>
<path d="M113.423 289.216H108.971C108.451 289.215 107.952 288.921 107.585 288.4C107.217 287.878 107.01 287.17 107.01 286.433V233.764C107.01 233.026 107.217 232.319 107.585 231.797C107.952 231.275 108.451 230.982 108.971 230.981H113.423C113.943 230.982 114.442 231.275 114.809 231.797C115.177 232.319 115.384 233.026 115.384 233.764V286.433C115.384 287.17 115.177 287.878 114.809 288.4C114.442 288.921 113.943 289.215 113.423 289.216Z" fill="#1DD1A1"/>
<path d="M127.687 289.216H123.234C122.714 289.215 122.216 288.921 121.848 288.4C121.48 287.878 121.274 287.17 121.273 286.433V233.764C121.274 233.026 121.48 232.319 121.848 231.797C122.216 231.275 122.714 230.982 123.234 230.981H127.687C128.207 230.982 128.705 231.275 129.073 231.797C129.44 232.319 129.647 233.026 129.648 233.764V286.433C129.647 287.17 129.44 287.878 129.073 288.4C128.705 288.921 128.207 289.215 127.687 289.216Z" fill="#1DD1A1"/>
<path d="M102.29 188.465L100.38 194.173C100.157 194.839 99.7561 195.352 99.2663 195.6C98.7765 195.847 98.2375 195.809 97.7676 195.493L64.2432 172.899C63.7738 172.582 63.4122 172.014 63.2378 171.319C63.0635 170.623 63.0905 169.859 63.313 169.192L65.2231 163.483C65.4467 162.817 65.8473 162.304 66.3371 162.057C66.8269 161.809 67.3659 161.848 67.8358 162.163L101.36 184.757C101.83 185.074 102.191 185.643 102.366 186.338C102.54 187.033 102.513 187.798 102.29 188.465Z" fill="#1DD1A1"/>
<path d="M107.341 191.524C107.436 192.173 107.363 192.848 107.136 193.427L104.984 198.959C104.732 199.604 104.31 200.082 103.811 200.286C103.311 200.491 102.775 200.406 102.32 200.05L86.5656 190.194C86.1107 189.837 85.7743 189.238 85.6302 188.529C85.4861 187.82 85.546 187.059 85.7969 186.413L85.7969 186.413L89.7446 175.932C89.8691 175.612 90.0367 175.33 90.238 175.102C90.4392 174.874 90.6702 174.704 90.9176 174.603C91.165 174.502 91.4241 174.471 91.68 174.511C91.9359 174.552 92.1837 174.664 92.4091 174.841L106.558 188.114C107.017 188.473 107.158 190.596 107.304 191.31C107.318 191.381 107.331 191.453 107.341 191.524Z" fill="#2F2E41"/>
<path d="M126.711 184.757L160.235 162.163C160.705 161.848 161.244 161.809 161.734 162.057C162.223 162.304 162.624 162.817 162.848 163.483L164.758 169.192C164.98 169.859 165.007 170.623 164.833 171.319C164.659 172.014 164.297 172.582 163.828 172.899L130.303 195.493C129.833 195.809 129.294 195.847 128.804 195.6C128.315 195.352 127.914 194.839 127.69 194.173L125.78 188.465C125.558 187.798 125.531 187.033 125.705 186.338C125.88 185.643 126.241 185.074 126.711 184.757Z" fill="#1DD1A1"/>
<path d="M120.767 191.31C120.912 190.596 121.054 188.473 121.513 188.114L135.662 174.841C135.887 174.664 136.135 174.552 136.391 174.511C136.647 174.471 136.906 174.502 137.153 174.603C137.401 174.704 137.632 174.874 137.833 175.102C138.034 175.33 138.202 175.612 138.326 175.932L142.274 186.413L142.274 186.413C142.525 187.059 142.585 187.82 142.441 188.529C142.297 189.238 141.96 189.837 141.505 190.194L125.751 200.05C125.296 200.406 124.759 200.491 124.26 200.286C123.76 200.082 123.338 199.604 123.087 198.959L120.935 193.427C120.708 192.848 120.635 192.173 120.73 191.524C120.74 191.453 120.752 191.381 120.767 191.31Z" fill="#2F2E41"/>
<path d="M112.008 152.416L111.991 151.56C113.114 151.516 114.103 151.416 114.847 150.645C115.058 150.414 115.231 150.121 115.355 149.787C115.479 149.452 115.551 149.084 115.565 148.706C115.578 148.475 115.554 148.244 115.494 148.029C115.433 147.814 115.339 147.621 115.218 147.467C114.724 146.875 113.93 147.067 113.351 147.443L112.851 147.768L113.809 137.839L114.407 137.955L113.592 146.401C113.926 146.226 114.285 146.172 114.637 146.243C114.989 146.315 115.322 146.511 115.607 146.813C115.799 147.05 115.949 147.348 116.047 147.681C116.144 148.015 116.186 148.376 116.168 148.736C116.151 149.243 116.055 149.739 115.888 150.188C115.722 150.637 115.488 151.029 115.203 151.336C114.247 152.327 113.006 152.377 112.008 152.416Z" fill="#2F2E41"/>
<path d="M120.613 138.684H117.363V139.54H120.613V138.684Z" fill="#2F2E41"/>
<path d="M110.355 138.684H107.105V139.54H110.355V138.684Z" fill="#2F2E41"/>
<path d="M119.724 177.548H120.375C120.635 177.549 120.893 177.476 121.134 177.335C121.374 177.194 121.593 176.987 121.777 176.726C121.961 176.465 122.107 176.155 122.207 175.813C122.307 175.472 122.358 175.106 122.358 174.737C122.358 174.367 122.307 174.001 122.207 173.66C122.107 173.319 121.961 173.009 121.777 172.747C121.593 172.486 121.374 172.279 121.134 172.138C120.893 171.997 120.635 171.925 120.375 171.925H107.696C107.171 171.926 106.668 172.223 106.297 172.75C105.926 173.277 105.718 173.992 105.718 174.737C105.718 175.482 105.926 176.196 106.297 176.723C106.668 177.25 107.171 177.547 107.696 177.548H108.887C98.7121 184.118 92.183 208.386 92.183 223.509C92.183 241.126 101.142 246.809 114.306 246.809C127.469 246.809 139.851 241.126 139.851 223.509C139.851 208.386 130.654 184.118 119.724 177.548Z" fill="#2F2E41"/>
<path d="M113.492 130.837C113.099 129.14 111.68 128.62 110.587 129.26C109.307 130.01 108.58 131.87 107.343 132.749C105.118 134.329 102.166 133.48 100.47 130.946C98.6146 128.176 98.2493 123.851 99.1829 120.353C100.148 116.734 102.544 114.116 105.108 113.052C108.516 111.639 112.172 112.936 115.123 115.542C115.202 115.606 115.29 115.644 115.381 115.652C115.471 115.661 115.562 115.64 115.646 115.591C115.73 115.543 115.805 115.468 115.866 115.372C115.927 115.276 115.971 115.162 115.996 115.038C116.808 110.638 120.309 109.357 123.122 109.829C125.899 110.372 128.541 111.868 130.818 114.187C135.216 118.542 138.317 125.635 138.751 133.271C138.96 137.199 138.561 141.144 137.583 144.83C136.605 148.516 135.071 151.854 133.088 154.611C132.097 155.969 130.941 157.036 129.93 158.359C129.01 159.565 128.102 161.15 128.12 163.027C128.163 167.341 132.163 168.531 134.53 168.66C137.469 168.846 140.354 167.507 142.648 164.893C144.942 162.28 146.486 158.57 146.992 154.458C147.118 153.456 147.184 152.442 147.187 151.425C147.191 150.339 146.002 150.338 145.999 151.425C145.977 155.524 144.84 159.454 142.826 162.393C141.791 163.867 140.558 165.032 139.201 165.821C137.844 166.609 136.39 167.005 134.924 166.986C133.034 166.972 127.914 165.701 129.63 161.458C130.301 159.799 131.505 158.67 132.542 157.515C133.622 156.311 134.602 154.938 135.465 153.421C137.201 150.378 138.481 146.863 139.226 143.092C139.971 139.321 140.165 135.374 139.796 131.493C139.03 123.886 135.78 117.013 131.359 112.673C127.15 108.54 119.37 104.885 115.691 112.045C115.301 112.812 115.016 113.675 114.85 114.59L115.723 114.086C112.879 111.574 109.49 110.271 106.148 110.998C104.709 111.306 103.33 112.027 102.094 113.117C100.859 114.207 99.7933 115.643 98.9624 117.338C98.1658 119.042 97.6782 120.999 97.5429 123.036C97.4076 125.072 97.6288 127.124 98.1869 129.01C98.7335 130.816 99.6345 132.361 100.783 133.461C101.931 134.562 103.277 135.17 104.662 135.215C106.162 135.3 107.638 134.659 108.847 133.397C109.524 132.665 110.044 131.627 110.777 131.003C111.197 130.646 112.14 130.395 112.346 131.285C112.584 132.312 113.733 131.872 113.492 130.837V130.837Z" fill="#2F2E41"/>
<path d="M140.433 47.5654C143.382 47.8291 146.246 49.0809 148.788 51.2182C151.331 53.3555 153.48 56.3175 155.06 59.8614C155.503 60.8661 156.081 61.9701 155.775 63.2067C155.668 63.6808 155.451 64.0896 155.159 64.366C154.867 64.6425 154.518 64.7704 154.169 64.7287C153.265 64.5726 152.682 63.3178 152.57 62.1155C152.444 60.7516 153.122 59.681 153.959 59.1742C156.005 57.936 158.068 59.8496 159.734 61.3769C163.531 64.8568 167.707 68.004 172.307 68.4006C176.564 68.7675 181.128 66.399 183.495 61.1608C183.91 60.2443 182.881 59.3975 182.469 60.3094C180.121 65.5045 175.375 67.3703 171.247 66.5673C168.788 66.0166 166.413 64.8723 164.226 63.1842C163.092 62.3488 161.991 61.4226 160.913 60.4491C159.888 59.4334 158.8 58.5488 157.664 57.8059C155.77 56.7015 153.262 56.7878 151.939 59.3306C150.704 61.7028 151.658 65.6521 153.723 66.319C155.68 66.951 157.394 64.3392 156.992 61.6083C156.786 60.2114 156.044 58.8444 155.471 57.7025C153.747 54.2611 151.501 51.4123 148.898 49.3659C146.296 47.3196 143.403 46.1279 140.433 45.8786C139.668 45.8249 139.67 47.5119 140.433 47.5654L140.433 47.5654Z" fill="#CCCCCC"/>
<path d="M43.1588 74.0589C40.2095 73.7952 37.3463 72.5434 34.8037 70.4061C32.2612 68.2687 30.1118 65.3067 28.5316 61.7629C28.0888 60.7582 27.5107 59.6542 27.8173 58.4176C27.9241 57.9434 28.141 57.5347 28.4327 57.2583C28.7244 56.9818 29.0736 56.8539 29.4231 56.8956C30.3269 57.0517 30.9102 58.3065 31.0215 59.5088C31.1478 60.8726 30.4698 61.9433 29.6328 62.4501C27.5873 63.6883 25.5236 61.7747 23.8574 60.2474C20.0608 56.7674 15.885 53.6203 11.2846 53.2237C7.02822 52.8568 2.46388 55.2252 0.0964137 60.4635C-0.317783 61.3799 0.71062 62.2268 1.12276 61.3149C3.47072 56.1198 8.21726 54.254 12.3443 55.0569C14.8038 55.6077 17.1786 56.752 19.3659 58.4401C20.5003 59.2755 21.6005 60.2016 22.6784 61.1752C23.7042 62.1909 24.7914 63.0754 25.9273 63.8183C27.8218 64.9227 30.3297 64.8365 31.653 62.2937C32.8876 59.9215 31.9335 55.9722 29.8686 55.3053C27.9118 54.6732 26.1975 57.2851 26.6002 60.0159C26.8062 61.4129 27.5474 62.7799 28.1212 63.9217C29.845 67.3632 32.0909 70.212 34.6934 72.2584C37.2959 74.3047 40.1888 75.4964 43.1589 75.7457C43.9235 75.7994 43.9215 74.1124 43.1589 74.0589L43.1588 74.0589Z" fill="#CCCCCC"/>
<path d="M180.232 289.7H56.5824C56.4963 289.7 56.4138 289.651 56.3529 289.565C56.292 289.479 56.2578 289.362 56.2578 289.239C56.2578 289.117 56.292 289 56.3529 288.914C56.4138 288.827 56.4963 288.779 56.5824 288.779H180.232C180.318 288.779 180.401 288.827 180.461 288.914C180.522 289 180.557 289.117 180.557 289.239C180.557 289.362 180.522 289.479 180.461 289.565C180.401 289.651 180.318 289.7 180.232 289.7Z" fill="#3F3D56"/>
</g>
<defs>
<clipPath id="clip0">
<rect width="200" height="289.7" fill="white"/>
</clipPath>
</defs>
</svg>
